<?xml version="1.0" standalone="no"?>
<!DOCTYPE svg PUBLIC "-//W3C//DTD SVG 20010904//EN"
 "http://www.w3.org/TR/2001/REC-SVG-20010904/DTD/svg10.dtd">
<svg version="1.0" xmlns="http://www.w3.org/2000/svg"
 width="1500.000000pt" height="1500.000000pt" viewBox="0 0 1500.000000 1500.000000"
 preserveAspectRatio="xMidYMid meet">
<metadata>
Created by potrace 1.16, written by Peter Selinger 2001-2019
</metadata>
<g transform="translate(0.000000,1500.000000) scale(0.100000,-0.100000)"
fill="#000000" stroke="none">
<path d="M4175 9003 c-49 -12 -236 -78 -290 -102 -134 -61 -456 -263 -517
-324 -20 -19 -58 -72 -84 -118 -27 -45 -90 -127 -141 -182 -135 -146 -185
-252 -184 -387 1 -91 58 -330 79 -330 4 0 17 40 29 88 73 297 264 619 541 908
140 148 348 324 381 324 21 0 11 -18 -26 -46 -58 -42 -266 -249 -343 -339
-186 -220 -347 -513 -434 -792 -43 -137 -95 -355 -110 -463 -8 -58 -18 -185
-22 -282 -4 -98 -9 -178 -12 -178 -3 0 -23 15 -46 33 -116 95 -240 138 -411
144 l-120 4 -29 -48 c-16 -26 -72 -117 -123 -202 -52 -85 -93 -161 -91 -169 5
-24 51 -49 558 -310 257 -132 278 -143 285 -159 5 -15 -36 -18 -50 -4 -6 5
-86 44 -180 86 -93 42 -189 85 -212 96 -24 10 -82 35 -130 55 -49 20 -114 49
-145 65 -85 43 -135 34 -126 -22 4 -27 2 -26 173 -92 77 -30 221 -87 320 -125
192 -76 366 -140 403 -149 18 -4 151 37 247 78 58 24 392 155 470 184 50 18
116 44 148 59 56 24 58 27 55 58 -2 28 -7 34 -31 36 -27 3 -68 -14 -335 -139
-45 -22 -86 -39 -90 -39 -4 0 -52 -22 -107 -50 -55 -27 -106 -50 -112 -50 -7
0 -42 -16 -79 -35 -67 -35 -94 -43 -94 -25 0 21 53 52 342 199 430 218 505
259 512 277 2 6 -1 20 -7 32 -20 34 -178 294 -211 346 l-31 48 -125 -5 c-151
-7 -260 -40 -367 -110 -71 -47 -163 -125 -127 -108 11 5 27 17 34 26 15 18
128 86 202 122 70 34 169 53 273 53 l94 0 72 -117 c39 -65 86 -140 104 -168
41 -63 47 -81 32 -93 -7 -4 -52 -20 -102 -35 -49 -14 -123 -36 -162 -48 -73
-21 -92 -42 -29 -32 19 3 36 1 40 -6 9 -14 -41 -44 -129 -78 -38 -14 -99 -42
-135 -61 -112 -60 -139 -72 -155 -72 -14 0 -15 2 -1 21 18 26 95 75 205 131
46 23 80 43 74 45 -14 5 -94 -30 -155 -69 -29 -18 -66 -40 -82 -48 -16 -8 -55
-39 -88 -67 -51 -46 -61 -51 -78 -41 -13 9 -20 29 -25 72 -4 34 -14 113 -22
176 -9 63 -17 150 -18 192 -1 43 -5 81 -8 85 -4 3 -7 87 -7 185 0 196 27 421
62 515 25 68 125 163 283 267 161 106 195 148 210 253 4 31 21 76 43 115 38
64 57 107 86 189 9 25 35 70 57 100 53 70 100 155 142 255 37 88 85 158 189
277 37 43 68 86 68 96 0 27 -26 36 -75 24z m-1460 -2074 c51 -12 57 -14 135
-47 104 -44 210 -130 210 -170 0 -54 32 -360 45 -432 16 -93 19 -150 7 -150
-4 0 -40 33 -80 73 -39 40 -91 84 -114 96 l-43 23 38 -35 c36 -35 47 -57 28
-57 -5 0 -65 29 -133 64 -68 34 -156 76 -196 91 -53 21 -72 33 -70 44 3 12 14
15 43 14 67 -5 22 21 -90 51 -168 44 -220 63 -223 79 -2 9 8 33 22 54 14 21
26 41 26 46 0 5 12 27 28 50 15 23 32 51 39 62 70 116 97 154 111 158 27 6
163 -3 217 -14z"/>
<path d="M7980 8188 c-19 -5 -66 -15 -105 -21 -68 -12 -70 -13 -73 -43 l-3
-32 70 -4 c38 -2 72 -6 75 -9 4 -4 9 -949 6 -1170 0 -23 -6 -28 -65 -44 -60
-16 -65 -19 -65 -45 l0 -27 230 0 230 0 0 28 c0 24 -6 30 -37 38 -21 6 -53 11
-70 11 -20 0 -33 5 -33 13 0 6 0 303 0 658 1 726 9 660 -78 658 -26 0 -63 -5
-82 -11z"/>
<path d="M5130 8134 c-221 -27 -418 -162 -508 -347 -57 -120 -67 -167 -67
-342 0 -140 3 -169 23 -235 70 -222 193 -350 407 -421 102 -34 290 -34 388 0
65 22 199 103 227 136 15 18 -1 65 -22 65 -7 0 -40 -19 -73 -40 -115 -77 -250
-109 -373 -90 -89 15 -141 39 -202 96 -60 56 -99 121 -136 229 -27 75 -28 90
-28 250 -1 161 1 174 27 249 36 102 68 156 138 230 102 109 225 149 384 127
85 -12 134 -27 147 -45 3 -5 9 -58 13 -118 6 -93 10 -110 27 -119 44 -24 62
-9 85 74 12 43 25 110 29 150 l6 73 -53 23 c-30 12 -84 29 -121 36 -71 15
-258 26 -318 19z"/>
<path d="M6142 7750 c-158 -33 -284 -148 -335 -305 -27 -81 -29 -275 -4 -355
48 -154 155 -263 300 -305 89 -26 235 -18 308 16 59 28 139 93 139 113 0 34
-23 34 -84 0 -67 -36 -170 -57 -241 -48 -97 13 -177 80 -216 183 -27 71 -40
251 -18 252 8 0 136 0 285 -1 235 -1 272 1 284 15 9 11 11 36 6 94 -14 166
-81 281 -191 327 -45 18 -175 26 -233 14z m198 -107 c31 -35 50 -106 50 -188
0 -42 -4 -55 -17 -59 -10 -3 -102 -8 -205 -12 l-187 -7 13 54 c18 76 38 118
80 165 53 61 107 86 180 81 51 -3 63 -8 86 -34z"/>
<path d="M8650 7753 c-61 -10 -191 -55 -196 -68 -5 -12 19 -176 32 -217 4 -13
16 -18 40 -18 40 0 54 24 54 94 0 67 11 106 32 117 11 6 51 14 91 18 183 20
237 -44 237 -278 l0 -98 -102 -7 c-259 -17 -390 -84 -428 -220 -32 -114 13
-228 109 -278 47 -25 64 -28 142 -28 103 0 162 18 239 75 53 39 52 40 68 -25
7 -31 13 -35 53 -43 56 -10 212 1 221 17 4 6 8 20 8 32 0 18 -10 23 -67 36
l-68 14 -1 319 c-2 327 -7 383 -43 453 -24 47 -45 66 -101 91 -38 17 -64 20
-170 19 -69 0 -136 -3 -150 -5z m288 -652 c3 -147 0 -153 -89 -200 -101 -54
-207 -42 -244 28 -52 102 -11 228 88 265 50 19 146 35 202 33 l40 -2 3 -124z"/>
<path d="M9945 7750 c-93 -20 -197 -72 -240 -120 -10 -11 -22 -20 -26 -20 -4
0 -9 28 -11 62 -3 56 -5 62 -28 68 -25 6 -264 -38 -288 -53 -6 -5 -12 -17 -12
-27 0 -21 12 -25 103 -35 l57 -6 0 -363 c0 -279 -3 -366 -12 -373 -7 -6 -31
-14 -53 -18 -56 -10 -75 -22 -75 -49 l0 -23 220 0 c209 0 220 1 226 20 8 26
-5 37 -67 51 l-54 11 -3 322 -2 321 37 32 c62 55 117 74 210 75 100 0 129 -17
155 -91 15 -43 17 -88 15 -353 l-2 -304 -60 -16 c-52 -14 -60 -19 -63 -42 l-3
-26 220 0 c122 0 221 4 221 8 0 4 3 14 6 22 7 20 -25 37 -85 46 l-46 6 -5 360
-5 360 -28 47 c-43 73 -102 107 -201 113 -34 2 -79 0 -101 -5z"/>
<path d="M2909 7698 c-8 -26 -14 -83 -14 -143 1 -93 3 -106 37 -183 20 -46 40
-98 44 -115 l7 -32 8 35 c4 19 11 82 14 140 l7 105 -44 118 -45 117 -14 -42z"/>
<path d="M6690 7702 c0 -26 4 -29 60 -41 33 -7 66 -18 73 -25 16 -12 347 -831
347 -857 0 -26 -136 -292 -169 -329 l-31 -35 -62 68 c-65 69 -81 77 -112 54
-18 -13 -18 -16 -1 -68 20 -61 59 -135 84 -161 38 -40 154 32 234 144 68 94
104 177 312 706 l190 482 55 16 c30 9 61 18 68 20 6 2 12 15 12 29 l0 25 -184
0 c-174 0 -184 -1 -189 -20 -6 -25 8 -36 67 -52 27 -7 50 -18 53 -24 2 -5 -37
-116 -87 -246 -49 -130 -100 -277 -112 -327 -20 -83 -38 -117 -38 -73 0 27
-81 251 -164 452 -42 101 -75 189 -72 196 2 6 32 19 65 28 53 15 61 20 61 42
l0 24 -230 0 -230 0 0 -28z"/>
<path d="M3480 7606 c-53 -20 -110 -54 -163 -98 -75 -63 -129 -192 -140 -335
-2 -29 -1 -53 2 -53 3 0 60 53 127 118 126 123 168 185 198 297 8 28 17 58 21
68 8 20 3 20 -45 3z"/>
</g>
</svg>
