<?xml version="1.0" standalone="no"?>
<!DOCTYPE svg PUBLIC "-//W3C//DTD SVG 20010904//EN"
 "http://www.w3.org/TR/2001/REC-SVG-20010904/DTD/svg10.dtd">
<svg version="1.0" xmlns="http://www.w3.org/2000/svg"
 width="1440.000000pt" height="523.000000pt" viewBox="0 0 1440.000000 523.000000"
 preserveAspectRatio="xMidYMid meet">
<metadata>
Created by potrace 1.16, written by Peter Selinger 2001-2019
</metadata>
<g transform="translate(0.000000,523.000000) scale(0.100000,-0.100000)"
fill="#000000" stroke="none">
<path d="M7735 4014 c-55 -12 -159 -33 -232 -45 -73 -12 -130 -25 -128 -29 3
-4 0 -22 -6 -40 -15 -42 -8 -46 95 -54 44 -4 102 -10 129 -13 l47 -6 0 -1067
0 -1067 -77 -22 c-172 -49 -158 -41 -161 -86 l-3 -40 394 0 394 0 11 24 c14
28 16 61 5 62 -9 1 -10 1 -138 34 -55 15 -103 30 -107 34 -4 3 -8 525 -8 1159
-1 1092 -2 1152 -18 1152 -10 0 -22 4 -27 9 -21 19 -75 17 -170 -5z"/>
<path d="M2629 3909 c-140 -14 -305 -65 -429 -132 -159 -86 -329 -240 -398
-359 -15 -27 -30 -48 -34 -48 -5 0 -8 -5 -8 -11 0 -5 -16 -43 -35 -82 -40 -85
-85 -218 -85 -256 0 -15 -6 -33 -12 -39 -17 -17 -19 -552 -2 -573 6 -8 15 -40
18 -71 4 -32 11 -60 16 -63 4 -3 11 -22 15 -42 4 -21 13 -51 20 -68 7 -16 25
-56 40 -88 27 -61 86 -160 111 -184 8 -8 14 -18 14 -22 0 -15 125 -133 185
-176 112 -79 233 -134 377 -172 94 -25 119 -27 293 -28 171 0 198 2 275 24
145 41 245 92 375 190 61 46 104 89 105 104 0 8 -11 23 -43 58 -18 20 -18 20
-59 -13 -260 -207 -589 -272 -878 -175 -36 12 -82 32 -102 44 -21 13 -42 23
-47 23 -5 0 -12 7 -15 16 -4 9 -9 15 -12 12 -8 -8 -106 92 -139 142 -17 25
-35 50 -41 56 -5 7 -25 43 -43 80 -18 38 -40 83 -48 99 -9 17 -17 44 -20 60
-3 17 -9 35 -13 40 -5 6 -14 51 -20 100 -7 50 -16 98 -22 109 -13 24 -12 420
1 444 5 10 10 27 10 38 0 31 22 132 33 149 3 6 9 26 13 45 4 19 11 41 15 50
32 61 50 103 50 116 0 8 7 17 15 20 8 4 15 12 15 19 0 6 9 22 20 35 11 13 20
26 20 30 0 4 13 23 30 41 16 19 30 37 30 41 0 15 115 116 182 161 90 59 154
83 276 104 82 14 115 14 222 5 124 -11 238 -35 295 -63 l30 -14 12 -140 c6
-77 14 -171 16 -209 3 -42 10 -72 19 -77 7 -5 34 -9 59 -9 46 0 54 6 65 45 1
6 14 46 28 89 14 43 26 91 26 107 0 15 4 30 8 33 11 6 13 32 15 156 l2 94 -55
28 c-76 37 -209 74 -332 92 -125 18 -355 26 -459 15z"/>
<path d="M4515 3239 c-188 -17 -335 -83 -477 -215 -45 -41 -118 -136 -118
-152 0 -7 -4 -12 -8 -12 -9 0 -48 -84 -58 -127 -4 -15 -11 -33 -15 -39 -5 -6
-12 -33 -15 -60 -4 -27 -12 -55 -18 -63 -7 -9 -11 -79 -11 -201 0 -122 4 -192
11 -201 6 -8 14 -36 18 -63 3 -27 11 -55 17 -62 6 -8 9 -14 6 -14 -5 0 11 -41
46 -122 6 -16 15 -28 19 -28 4 0 8 -5 8 -11 0 -6 13 -29 29 -52 97 -139 250
-243 431 -294 95 -26 353 -26 430 1 86 30 161 70 226 123 106 86 120 112 73
141 -17 11 -26 8 -62 -16 -121 -83 -229 -114 -403 -114 -84 0 -123 5 -167 20
-57 21 -177 97 -177 114 0 5 -4 6 -10 3 -5 -3 -10 0 -10 7 0 8 -8 21 -17 30
-29 27 -44 48 -36 48 4 0 4 4 -2 8 -17 12 -80 152 -68 152 3 0 1 6 -5 13 -5 6
-13 41 -17 77 -4 36 -11 70 -16 76 -11 14 -13 219 -3 236 5 8 136 10 508 5
437 -6 503 -5 521 8 16 13 19 27 18 83 0 69 -8 157 -18 202 -3 14 -8 45 -11
70 -3 25 -10 47 -15 48 -5 2 -9 12 -9 23 0 29 -76 168 -113 207 -77 81 -191
138 -297 148 -30 3 -66 6 -80 8 -14 1 -61 -1 -105 -5z m198 -137 c56 -26 93
-64 112 -120 9 -26 21 -54 25 -63 5 -9 14 -81 20 -160 12 -134 11 -143 -6
-156 -10 -7 -24 -11 -30 -9 -6 2 -78 0 -160 -5 -155 -9 -256 -15 -435 -25
-100 -6 -106 -5 -111 14 -3 11 -2 26 3 33 5 8 9 28 9 45 0 16 4 34 9 40 6 5
12 20 14 34 6 37 43 128 58 140 3 3 18 25 32 50 14 25 51 67 81 93 126 108
263 140 379 89z"/>
<path d="M8895 3235 c-97 -15 -218 -48 -303 -83 l-62 -26 6 -80 c3 -45 9 -90
14 -101 4 -11 13 -55 19 -98 12 -89 33 -137 60 -137 72 0 102 31 101 101 0 35
4 76 17 169 4 30 7 61 6 68 -2 23 43 43 139 62 183 38 329 17 399 -57 46 -49
65 -80 74 -123 4 -19 12 -41 19 -49 12 -15 13 -437 1 -449 -3 -4 -89 -10 -190
-14 -101 -3 -192 -11 -203 -17 -11 -6 -22 -8 -25 -5 -11 11 -199 -46 -273 -83
-85 -42 -177 -126 -196 -179 -7 -19 -16 -34 -20 -34 -4 0 -11 -18 -14 -40 -4
-22 -11 -43 -15 -46 -12 -7 -12 -211 0 -218 4 -3 11 -24 15 -46 3 -22 11 -40
16 -40 6 0 10 -6 10 -13 0 -7 19 -34 42 -60 75 -87 207 -137 359 -137 104 0
172 12 262 46 66 25 175 98 207 137 12 15 23 18 46 13 29 -6 30 -9 30 -56 0
-28 6 -56 12 -62 7 -7 12 -20 12 -29 0 -25 22 -30 150 -36 103 -5 285 8 298
22 3 2 5 24 6 47 l1 42 -95 27 c-52 14 -105 32 -118 40 l-22 14 0 500 c0 542
-3 644 -20 675 -6 11 -9 24 -6 29 3 4 -1 16 -8 27 -8 10 -12 24 -9 30 7 18
-53 129 -92 173 -41 45 -131 88 -212 101 -81 14 -342 11 -438 -5z m495 -1154
l0 -227 -36 -42 c-39 -46 -142 -112 -214 -137 -56 -20 -172 -23 -225 -5 -39
12 -97 47 -103 61 -2 4 -12 17 -23 30 -10 12 -19 28 -19 36 0 7 -4 13 -8 13
-15 0 -27 104 -21 180 15 161 101 247 296 294 64 16 326 37 346 28 4 -2 7
-106 7 -231z"/>
<path d="M11156 3223 c-83 -17 -167 -49 -251 -96 -79 -45 -96 -58 -167 -122
-27 -25 -53 -45 -58 -45 -17 0 -28 34 -19 57 5 13 8 58 8 101 l-1 78 -44 12
c-40 11 -66 8 -252 -28 -114 -23 -217 -43 -228 -45 -16 -4 -23 -15 -28 -46 -4
-23 -4 -44 -2 -47 3 -2 62 -10 131 -17 69 -7 129 -16 133 -21 4 -5 6 -302 4
-660 l-2 -651 -73 -21 c-39 -12 -91 -26 -114 -32 -42 -11 -43 -12 -43 -53 l0
-42 380 0 381 0 -3 45 -3 44 -100 29 c-55 16 -106 33 -112 39 -10 8 -13 132
-13 558 l0 547 22 29 c50 64 151 131 251 166 50 18 85 22 182 23 108 0 125 -2
164 -24 57 -30 93 -66 111 -111 7 -19 18 -41 24 -49 8 -10 12 -194 14 -580 l3
-566 -83 -28 c-46 -14 -95 -29 -110 -33 -25 -5 -28 -11 -28 -48 l0 -41 378 1
377 2 0 43 0 43 -112 30 -111 30 -4 51 c-2 27 -5 291 -6 585 -2 294 -5 551 -9
570 -3 19 -21 69 -40 110 -57 125 -151 196 -289 219 -81 14 -169 12 -258 -6z"/>
<path d="M5405 3160 c-9 -50 -6 -52 84 -75 123 -30 171 -46 171 -56 0 -5 8
-29 18 -52 10 -23 26 -62 36 -87 10 -25 24 -58 32 -75 7 -16 16 -42 20 -57 3
-16 10 -28 14 -28 4 0 10 -13 13 -30 6 -27 19 -60 63 -157 8 -17 14 -35 14
-40 0 -4 6 -20 14 -35 8 -15 17 -40 21 -57 4 -17 10 -31 15 -31 4 0 10 -13 13
-30 6 -27 19 -60 63 -157 8 -17 14 -35 14 -40 0 -4 6 -20 14 -35 8 -15 17 -40
21 -57 4 -17 11 -31 16 -31 5 0 9 -8 9 -17 1 -10 9 -36 20 -58 11 -22 19 -44
20 -48 0 -4 9 -29 21 -55 11 -26 26 -60 34 -77 7 -16 16 -45 20 -62 4 -18 10
-33 15 -33 4 0 11 -16 14 -35 4 -19 10 -35 14 -35 4 0 13 -20 20 -45 12 -44 9
-63 -18 -120 -27 -59 -50 -115 -50 -122 0 -19 -134 -271 -151 -283 -3 -3 -13
-18 -22 -35 -9 -16 -26 -42 -39 -56 -13 -15 -34 -40 -47 -58 -13 -17 -30 -31
-37 -31 -6 0 -32 24 -55 52 -24 29 -52 59 -61 66 -10 7 -18 17 -18 23 0 5 -16
25 -35 43 -19 19 -35 39 -35 45 0 16 -44 14 -85 -3 -34 -15 -45 -40 -27 -62 5
-5 14 -35 21 -67 7 -31 17 -57 22 -57 5 0 9 -6 9 -12 0 -13 50 -119 60 -128 3
-3 18 -26 33 -52 31 -54 41 -56 114 -32 90 31 159 85 277 219 20 22 36 44 36
48 0 8 37 62 57 84 6 7 15 23 19 35 4 12 13 28 20 36 8 7 14 20 14 28 0 8 5
14 10 14 6 0 10 6 10 13 0 6 11 35 25 62 13 28 25 56 25 63 0 6 4 12 9 12 5 0
12 12 16 27 3 15 15 46 26 70 10 23 19 47 19 53 0 5 4 18 10 28 15 27 60 147
60 160 0 7 4 12 9 12 5 0 14 22 21 49 6 27 18 58 25 68 8 10 15 28 15 41 0 12
4 22 9 22 5 0 13 17 19 38 14 52 46 136 54 142 3 3 10 18 13 33 4 15 16 44 26
64 10 21 19 45 19 55 0 9 4 19 9 22 5 3 12 21 15 40 4 19 11 36 16 38 5 2 11
12 13 23 6 30 24 78 56 146 11 25 24 60 27 77 4 18 10 32 14 32 5 0 11 14 15
31 4 17 13 42 21 57 8 15 17 42 20 60 3 17 10 32 14 32 5 0 12 14 15 32 4 18
11 39 16 48 11 19 52 130 55 150 2 8 8 16 13 18 6 2 13 19 17 38 8 46 34 62
146 90 49 13 92 25 95 28 3 2 7 23 10 47 l6 42 -79 -7 c-93 -9 -355 -9 -470 0
-79 6 -81 6 -87 -17 -17 -61 -12 -67 76 -93 45 -14 94 -28 110 -32 36 -8 39
-15 26 -55 -11 -35 -13 -39 -48 -121 -12 -26 -21 -53 -21 -60 -1 -7 -9 -31
-20 -53 -11 -22 -19 -48 -20 -57 0 -10 -4 -18 -8 -18 -5 0 -15 -25 -22 -55 -7
-30 -17 -55 -21 -55 -4 0 -11 -15 -14 -32 -4 -18 -11 -37 -15 -43 -4 -5 -20
-46 -36 -90 -15 -44 -34 -91 -41 -105 -7 -14 -13 -32 -13 -41 0 -9 -3 -19 -7
-23 -5 -4 -8 -11 -9 -14 0 -4 -6 -20 -12 -35 -7 -16 -12 -37 -12 -47 0 -10 -4
-21 -9 -24 -5 -3 -14 -36 -21 -73 -7 -38 -16 -73 -21 -79 -5 -6 -11 -36 -15
-67 -7 -62 -14 -72 -43 -62 -19 6 -29 30 -38 90 -8 61 -36 166 -44 171 -5 3
-9 12 -9 21 0 8 -6 29 -14 46 -7 18 -19 48 -26 67 -18 52 -39 102 -56 132 -7
14 -14 31 -14 38 0 7 -6 26 -14 43 -76 168 -88 197 -93 222 -2 10 -7 22 -12
25 -5 3 -12 16 -15 30 -4 14 -17 45 -28 70 -12 25 -21 51 -21 58 0 6 -4 12 -9
12 -4 0 -8 7 -8 16 0 8 -9 35 -20 60 -11 24 -23 57 -26 72 -6 28 -4 30 63 50
37 12 86 26 109 32 46 11 70 44 59 80 -7 22 -9 23 -119 16 -131 -9 -431 -8
-567 0 l-97 7 -7 -43z"/>
</g>
</svg>
