<?xml version="1.0" standalone="no"?>
<!DOCTYPE svg PUBLIC "-//W3C//DTD SVG 20010904//EN"
 "http://www.w3.org/TR/2001/REC-SVG-20010904/DTD/svg10.dtd">
<svg version="1.0" xmlns="http://www.w3.org/2000/svg"
 width="2000.000000pt" height="2000.000000pt" viewBox="0 0 2000.000000 2000.000000"
 preserveAspectRatio="xMidYMid meet">
<metadata>
Created by potrace 1.16, written by Peter Selinger 2001-2019
</metadata>
<g transform="translate(0.000000,2000.000000) scale(0.100000,-0.100000)"
fill="#000000" stroke="none">
<path d="M0 10000 l0 -10000 10000 0 10000 0 0 10000 0 10000 -10000 0 -10000
0 0 -10000z m5664 2004 c9 -8 16 -23 16 -33 0 -10 -44 -68 -97 -131 -133 -153
-189 -231 -230 -320 -20 -41 -53 -113 -75 -160 -44 -94 -81 -155 -148 -245
-50 -66 -59 -85 -89 -191 -12 -39 -39 -98 -61 -132 -60 -93 -68 -114 -86 -204
-28 -142 -65 -192 -208 -285 -226 -146 -365 -261 -423 -349 -27 -42 -53 -130
-68 -229 -8 -55 -20 -131 -26 -170 -12 -74 -22 -546 -12 -571 9 -24 32 -16 81
29 123 113 233 178 386 229 120 41 122 41 280 42 l160 1 28 -40 c15 -22 60
-94 100 -160 40 -66 100 -163 134 -215 83 -129 87 -136 75 -159 -11 -19 -104
-78 -206 -129 -213 -107 -688 -351 -819 -420 -87 -47 -116 -72 -80 -72 9 0 40
13 68 29 28 15 83 40 121 54 39 14 115 48 170 75 55 27 123 57 150 67 28 10
73 31 100 46 28 15 79 39 115 52 36 14 112 48 170 76 124 61 173 66 199 19 11
-20 13 -34 6 -54 -11 -29 -76 -62 -264 -130 -51 -19 -222 -86 -380 -149 -304
-121 -417 -164 -520 -197 l-63 -21 -77 31 c-42 17 -128 50 -191 73 -63 23
-212 79 -330 126 -246 96 -450 175 -530 206 -71 27 -90 44 -90 79 0 31 38 78
63 78 8 0 57 -20 108 -44 52 -24 144 -64 204 -89 61 -24 144 -60 185 -79 42
-20 86 -39 99 -43 14 -4 63 -26 110 -50 47 -23 118 -55 156 -70 39 -16 94 -42
124 -58 29 -15 56 -25 60 -22 7 8 -32 39 -79 64 -19 10 -89 46 -155 81 -66 34
-252 129 -412 211 -389 199 -457 238 -461 267 -3 22 87 180 245 430 23 37 50
82 60 100 9 18 28 35 41 39 14 3 84 3 157 0 109 -4 150 -11 236 -37 122 -37
233 -94 307 -157 29 -25 56 -43 59 -39 3 3 5 40 4 83 -3 142 19 436 43 583 45
269 129 564 231 812 61 146 195 400 260 493 23 33 49 74 58 90 45 86 250 320
451 517 147 144 178 184 84 110 -199 -158 -435 -393 -594 -592 -250 -314 -419
-641 -503 -974 -15 -61 -33 -112 -39 -114 -12 -4 -69 173 -96 293 -36 164 -31
254 20 382 40 101 98 185 215 310 62 67 125 147 154 195 128 216 161 245 547
478 183 110 340 186 488 235 205 68 257 77 284 49z m5093 -375 l23 -8 2 -868
3 -868 95 -25 c99 -26 109 -34 92 -81 l-9 -24 -307 0 -307 -1 3 40 3 39 88 25
87 25 0 792 0 793 -37 6 c-21 3 -69 8 -107 12 l-68 7 6 35 c3 19 9 39 13 43 5
5 60 18 123 29 63 11 140 26 170 34 53 13 81 12 127 -5z m-3728 -80 c135 -12
277 -46 350 -84 l53 -26 -6 -67 c-13 -128 -52 -289 -79 -326 -11 -16 -21 -18
-60 -12 -42 7 -47 10 -51 39 -5 29 -26 262 -26 285 0 28 -164 62 -301 62 -118
0 -181 -14 -271 -62 -104 -55 -216 -185 -279 -324 -84 -185 -101 -472 -44
-712 27 -112 106 -260 176 -329 192 -193 516 -200 789 -18 64 44 85 53 99 45
20 -10 31 -31 31 -60 0 -46 -205 -177 -345 -220 -90 -27 -245 -37 -355 -21
-468 69 -742 441 -717 971 7 139 22 212 67 330 122 314 444 530 805 539 28 0
101 -4 164 -10z m4841 -516 c80 -25 150 -98 178 -183 35 -105 41 -194 42 -592
l0 -377 66 -21 c36 -11 72 -20 80 -20 21 0 32 -32 23 -66 -8 -28 -14 -32 -55
-38 -70 -9 -259 -7 -287 3 -18 7 -26 20 -31 46 -4 21 -12 48 -17 62 l-9 25
-51 -41 c-104 -83 -213 -116 -355 -109 -70 3 -102 10 -152 33 -116 52 -172
144 -172 281 0 244 192 376 568 391 l142 6 2 101 c4 206 -5 268 -45 327 -39
59 -88 79 -192 79 -71 0 -199 -20 -211 -33 -1 -1 -9 -60 -18 -131 -9 -71 -18
-131 -21 -134 -2 -3 -27 -7 -54 -10 l-49 -4 -11 38 c-21 72 -42 214 -39 256 3
40 4 42 63 64 184 70 467 92 605 47z m-3508 6 c112 -24 200 -92 256 -198 45
-84 62 -154 69 -275 6 -99 4 -110 -12 -122 -15 -11 -95 -14 -397 -14 l-378 0
0 -67 c2 -235 100 -428 248 -483 49 -19 73 -21 172 -18 105 3 121 6 183 35 38
18 81 42 97 53 l29 21 21 -21 c29 -29 25 -44 -27 -90 -109 -96 -224 -140 -367
-140 -178 0 -322 56 -436 170 -140 140 -205 353 -179 588 20 177 77 300 191
407 139 132 348 192 530 154z m5085 -19 c97 -43 147 -100 177 -200 13 -44 16
-108 16 -345 0 -161 3 -360 7 -442 l6 -151 84 -22 c82 -22 83 -23 83 -54 0
-17 -4 -36 -8 -41 -4 -7 -111 -11 -299 -10 -287 0 -293 0 -293 20 0 35 12 65
25 65 7 0 43 9 79 21 l67 20 -3 422 c-3 418 -3 422 -26 469 -37 75 -76 93
-197 93 -120 -1 -180 -21 -268 -90 l-57 -45 2 -423 3 -422 83 -25 c79 -24 82
-25 82 -55 0 -16 -4 -35 -8 -40 -4 -7 -112 -11 -300 -11 l-293 0 3 40 3 41 88
24 87 23 0 488 0 487 -100 10 c-55 6 -103 13 -107 17 -4 3 -2 23 3 43 l9 37
179 34 c138 27 187 33 215 26 l36 -9 -2 -88 -2 -87 62 50 c80 66 203 127 292
145 91 19 211 12 272 -15z m-3987 -46 c0 -40 -2 -42 -34 -48 -62 -12 -136 -37
-136 -46 0 -5 58 -150 128 -322 122 -295 165 -413 193 -518 l11 -45 34 122
c18 67 87 264 154 438 66 173 120 319 120 323 0 4 -38 18 -85 31 -90 25 -94
30 -79 86 5 19 13 20 249 20 264 0 260 1 249 -53 -5 -26 -12 -30 -79 -46 -40
-9 -80 -23 -88 -29 -9 -7 -128 -299 -266 -649 -317 -806 -328 -829 -457 -989
-94 -117 -241 -192 -280 -143 -27 36 -114 219 -123 261 -8 41 -8 42 24 57 18
9 41 16 52 16 10 0 49 -37 93 -90 41 -49 78 -90 82 -90 3 0 29 30 57 68 54 71
144 243 186 355 l25 67 -228 567 -227 567 -89 22 c-48 12 -93 27 -98 32 -5 5
-7 25 -3 43 l6 34 305 0 304 0 0 -41z m-5537 -685 c5 -19 31 -95 59 -169 l51
-135 -12 -90 c-6 -49 -13 -121 -17 -160 -3 -38 -7 -80 -10 -92 -5 -26 -24 -31
-24 -7 0 8 -19 63 -41 122 -83 215 -81 205 -76 342 6 179 45 285 70 189z m790
-125 c7 -7 -16 -85 -56 -189 -36 -94 -99 -195 -165 -262 -62 -63 -252 -237
-264 -242 -6 -2 -7 27 -3 70 31 328 151 510 398 603 68 26 81 29 90 20z m-153
-494 c0 -23 -39 -110 -64 -142 -26 -35 -238 -230 -256 -236 -14 -5 -11 57 3
92 19 43 175 208 242 254 61 43 75 49 75 32z m9040 -1205 l5 -390 38 -9 c26
-7 37 -15 35 -25 -3 -13 -20 -17 -81 -19 l-78 -3 -12 31 c-12 32 -21 37 -33
19 -13 -21 -109 -59 -149 -59 -89 1 -182 77 -210 174 -19 64 -19 169 1 235 18
61 70 123 128 154 44 23 160 30 224 13 l32 -8 0 105 0 105 -50 7 c-75 10 -65
31 25 51 28 7 66 11 85 10 l35 -1 5 -390z m-1920 -10 l148 -370 38 -11 c22 -6
40 -18 42 -27 3 -15 -12 -17 -142 -17 -121 0 -146 3 -146 14 0 9 18 20 44 28
l45 13 -42 108 -42 108 -129 -3 -130 -3 -32 -90 c-18 -49 -33 -97 -33 -106 -1
-10 14 -20 39 -28 23 -7 40 -18 40 -26 0 -12 -21 -15 -120 -15 -95 0 -120 3
-120 14 0 8 18 18 43 25 l44 11 128 362 c70 200 133 369 138 376 6 7 17 12 25
10 8 -2 72 -148 162 -373z m-5385 334 c0 -8 -9 -15 -20 -17 -11 -2 -32 -8 -47
-14 l-28 -10 0 -329 0 -329 138 0 138 0 12 62 c22 118 52 103 60 -31 l5 -91
-272 0 c-231 0 -271 2 -271 15 0 8 16 19 40 25 l40 11 0 334 0 334 -40 12
c-25 8 -40 18 -40 28 0 14 18 16 142 14 112 -1 143 -4 143 -14z m2114 -171
c14 -38 10 -42 -69 -57 l-58 -12 28 -28 c35 -34 54 -100 45 -155 -5 -30 -18
-52 -49 -82 -52 -49 -111 -68 -200 -62 -59 3 -66 2 -75 -18 -20 -44 18 -63
173 -83 146 -20 198 -60 198 -150 0 -61 -22 -100 -76 -135 -58 -38 -109 -50
-206 -50 -121 1 -187 32 -217 102 -24 56 9 134 71 169 17 9 17 12 2 41 -21 40
-20 60 4 107 l20 38 -40 34 c-87 75 -73 214 27 270 62 35 125 45 197 32 l63
-10 64 40 c35 23 69 41 76 41 6 0 16 -14 22 -32z m1841 6 c6 -14 10 -29 10
-34 0 -10 -46 -25 -103 -35 l-38 -6 24 -19 c52 -41 71 -127 43 -193 -32 -76
-117 -119 -227 -116 -76 2 -89 -3 -89 -37 0 -30 23 -40 123 -54 118 -17 194
-40 221 -67 36 -36 43 -99 18 -155 -36 -81 -118 -120 -257 -122 -154 -2 -235
47 -235 143 0 27 7 57 17 71 18 27 18 27 52 52 24 17 24 17 6 53 -16 35 -16
40 0 81 9 24 21 47 27 50 5 3 -4 15 -21 25 -47 28 -71 75 -71 137 0 57 9 83
44 120 48 53 139 77 235 61 60 -9 61 -9 123 30 35 22 69 40 76 40 7 1 17 -11
22 -25z m-3286 -39 c64 -31 71 -56 74 -285 2 -113 8 -210 13 -216 5 -6 23 -14
40 -18 22 -4 30 -11 27 -23 -3 -15 -16 -18 -81 -21 -68 -3 -77 -1 -77 15 0 10
-4 24 -9 32 -8 12 -15 10 -40 -12 -60 -50 -178 -55 -240 -9 -38 28 -57 93 -41
145 24 79 94 118 243 132 l67 7 0 69 c0 93 -18 133 -64 149 -38 12 -111 6
-133 -12 -7 -6 -13 -25 -13 -42 0 -17 -3 -41 -6 -54 -9 -31 -46 -26 -55 8 -11
40 -10 108 2 116 54 33 238 45 293 19z m685 -3 c72 -36 75 -49 81 -285 l5
-212 35 -11 c19 -6 36 -19 38 -28 3 -14 -12 -16 -127 -16 -108 0 -131 3 -131
15 0 8 17 19 41 26 l41 13 -4 187 c-3 172 -5 190 -24 216 -35 47 -121 48 -189
2 l-35 -24 0 -191 0 -191 32 -9 c18 -6 34 -17 36 -27 3 -15 -9 -17 -127 -17
-108 0 -131 3 -131 15 0 8 17 19 40 26 l40 12 0 219 0 218 -22 0 c-39 0 -68
12 -68 26 0 14 4 15 103 34 74 15 87 10 87 -35 l0 -36 47 33 c81 55 172 71
232 40z m1847 3 c26 -11 40 -26 56 -62 19 -43 22 -70 26 -245 l4 -197 34 -11
c23 -8 34 -18 34 -31 0 -17 -8 -19 -75 -19 -59 0 -77 3 -80 15 -3 8 -7 22 -10
30 -4 13 -11 12 -42 -9 -50 -32 -114 -48 -161 -40 -86 16 -122 57 -122 141 0
102 72 151 243 168 l67 7 0 74 c0 87 -16 126 -59 144 -33 13 -126 5 -137 -12
-4 -5 -9 -33 -13 -62 -5 -42 -10 -52 -28 -54 -18 -3 -24 4 -32 35 -13 47 -14
100 -2 107 53 33 238 46 297 21z m1189 -4 c70 -32 101 -86 107 -186 l3 -60
-172 -3 -173 -2 0 -48 c0 -172 130 -261 275 -187 37 18 51 21 57 12 9 -14 -31
-52 -82 -75 -45 -20 -153 -20 -201 1 -56 23 -114 82 -139 140 -27 62 -32 168
-11 241 40 136 214 223 336 167z m1703 -1 c28 -11 32 -16 32 -48 0 -21 -5 -54
-11 -75 -8 -31 -14 -38 -32 -35 -18 2 -23 12 -28 54 -8 67 -11 70 -59 78 -125
20 -210 -81 -210 -248 0 -110 36 -188 102 -222 41 -21 120 -15 179 14 27 14
47 18 53 12 14 -14 -10 -38 -68 -68 -112 -57 -253 -21 -323 82 -43 63 -56 114
-51 206 6 135 69 219 198 261 33 11 177 4 218 -11z m468 5 c26 -11 40 -26 56
-62 19 -43 22 -70 26 -245 l4 -197 34 -11 c23 -8 34 -18 34 -31 0 -17 -8 -19
-75 -19 -59 0 -77 3 -80 15 -3 8 -7 22 -10 30 -4 13 -11 12 -42 -9 -50 -32
-114 -48 -161 -40 -86 16 -122 57 -122 141 0 102 72 151 243 168 l67 7 0 74
c0 87 -16 126 -59 144 -33 13 -126 5 -137 -12 -4 -5 -9 -33 -13 -62 -5 -42
-10 -52 -28 -54 -18 -3 -24 4 -32 35 -13 47 -14 100 -2 107 53 33 238 46 297
21z m1259 -4 c70 -32 101 -86 107 -186 l3 -60 -172 -3 -173 -2 0 -48 c0 -172
130 -261 275 -187 37 18 51 21 57 12 9 -14 -31 -52 -82 -75 -45 -20 -153 -20
-201 1 -56 23 -114 82 -139 140 -27 62 -32 168 -11 241 40 136 214 223 336
167z m637 8 c23 -6 49 -23 65 -44 l27 -34 39 31 c94 74 200 76 267 4 25 -27
25 -30 30 -244 l5 -217 35 -11 c19 -6 36 -19 38 -28 3 -14 -12 -16 -127 -16
-108 0 -131 3 -131 15 0 8 17 19 41 26 l40 13 -3 194 -3 194 -28 24 c-47 40
-110 31 -169 -24 l-28 -26 0 -182 0 -182 37 -9 c23 -5 39 -15 41 -26 3 -15 -9
-17 -127 -17 -103 0 -131 3 -131 13 0 8 18 21 41 30 l41 16 -4 185 c-3 169 -5
187 -24 213 -36 48 -115 46 -183 -5 l-26 -19 -3 -190 -2 -190 32 -9 c18 -5 34
-17 36 -27 3 -15 -9 -17 -127 -17 -108 0 -131 3 -131 15 0 8 17 19 40 26 l40
12 0 219 0 218 -22 0 c-39 0 -68 12 -68 26 0 14 4 15 103 34 74 15 87 10 87
-35 l0 -35 51 35 c29 19 63 38 78 41 14 3 31 7 36 9 20 7 51 5 87 -6z m-6118
-5 c14 -5 16 -35 16 -226 l0 -219 25 -24 c36 -37 106 -35 168 5 l47 30 0 184
0 183 -40 7 c-43 7 -51 20 -22 34 28 15 140 35 156 29 13 -5 16 -43 18 -259
l3 -252 38 -9 c27 -7 37 -14 35 -26 -3 -13 -18 -17 -80 -19 l-76 -3 -7 41 c-7
44 -23 50 -49 21 -49 -54 -207 -82 -261 -47 -56 37 -60 53 -63 278 l-3 208
-24 0 c-53 0 -78 35 -32 44 12 3 40 9 62 14 50 12 69 14 89 6z m6884 -250 l2
-251 33 -9 c17 -6 33 -17 35 -27 3 -15 -9 -17 -127 -17 -108 0 -131 3 -131 15
0 8 16 19 40 25 l40 11 0 219 0 220 -22 0 c-71 1 -93 35 -30 46 20 3 51 10 67
14 17 5 44 8 60 7 l30 -2 3 -251z"/>
<path d="M3304 9224 c-26 -39 -27 -41 -159 -260 -63 -105 -115 -196 -115 -202
0 -6 26 -19 58 -28 31 -9 104 -29 162 -46 58 -17 130 -37 160 -44 223 -58 464
-193 629 -353 52 -50 98 -91 102 -91 15 0 15 28 2 100 -25 141 -47 327 -62
534 -11 138 -11 140 -43 174 -41 42 -179 134 -244 163 -97 43 -214 69 -345 76
l-126 6 -19 -29z"/>
<path d="M4790 9240 c-147 -17 -403 -135 -510 -234 -19 -18 -52 -45 -72 -60
-35 -25 -38 -31 -38 -74 0 -82 55 -482 78 -567 12 -45 38 -43 85 7 147 154
424 287 822 393 150 40 165 45 165 59 0 7 -24 53 -54 102 -133 221 -195 319
-220 350 -27 34 -27 34 -109 33 -45 -1 -111 -5 -147 -9z"/>
<path d="M3405 8580 c-10 -17 -1 -23 106 -68 53 -22 160 -73 238 -112 138 -69
167 -77 145 -43 -18 29 -215 141 -317 181 -124 48 -163 57 -172 42z"/>
<path d="M4825 8556 c-49 -18 -117 -47 -150 -64 -89 -46 -228 -135 -233 -149
-7 -23 32 -14 88 20 30 18 70 38 88 45 18 6 45 20 60 30 15 10 65 34 112 52
119 47 182 79 175 90 -10 16 -46 10 -140 -24z"/>
<path d="M11665 10324 c-106 -21 -135 -29 -166 -45 -48 -24 -95 -80 -108 -126
-19 -67 -14 -155 12 -203 35 -67 91 -93 187 -88 84 5 149 33 214 93 l36 33 0
171 0 171 -77 -1 c-43 -1 -87 -3 -98 -5z"/>
<path d="M8178 10930 c-75 -23 -169 -113 -212 -205 -26 -53 -59 -175 -51 -183
5 -5 455 16 504 24 l34 5 -6 92 c-10 154 -45 234 -113 263 -36 15 -113 17
-156 4z"/>
<path d="M13320 8543 c-26 -10 -61 -47 -83 -88 -19 -34 -22 -56 -22 -150 0
-92 3 -117 21 -150 43 -82 128 -108 209 -62 l40 23 3 201 2 202 -29 16 c-29
14 -110 19 -141 8z"/>
<path d="M11480 8657 c0 -9 -20 -78 -45 -155 -25 -77 -45 -142 -45 -146 0 -3
47 -6 105 -6 58 0 105 3 105 8 0 4 -20 58 -45 120 -24 62 -47 129 -51 148 -6
35 -24 57 -24 31z"/>
<path d="M8071 8533 c-122 -65 -77 -276 59 -276 100 0 160 113 116 218 -27 64
-111 92 -175 58z"/>
<path d="M8018 8042 c-63 -71 -46 -166 35 -203 106 -48 257 11 257 101 0 51
-53 82 -168 100 -37 6 -76 12 -88 15 -13 3 -27 -2 -36 -13z"/>
<path d="M9924 8540 c-32 -13 -72 -67 -80 -105 -24 -127 83 -216 194 -162 60
29 83 147 42 215 -31 50 -102 74 -156 52z"/>
<path d="M9850 8030 c-12 -17 -24 -48 -27 -69 -18 -134 188 -191 300 -84 28
28 35 69 17 102 -13 25 -74 48 -157 61 -37 5 -78 12 -90 15 -16 4 -27 -3 -43
-25z"/>
<path d="M6870 8284 c-102 -16 -140 -49 -140 -121 0 -97 107 -126 188 -51 19
19 22 31 22 100 0 86 3 83 -70 72z"/>
<path d="M9379 8280 c-61 -10 -86 -24 -104 -60 -24 -46 -19 -87 14 -121 37
-37 79 -38 138 -4 l43 26 0 84 c0 96 6 91 -91 75z"/>
<path d="M10564 8546 c-44 -19 -81 -63 -99 -115 -8 -24 -15 -48 -15 -52 0 -10
232 0 242 10 13 11 -11 124 -29 142 -26 25 -63 31 -99 15z"/>
<path d="M12739 8280 c-61 -10 -86 -24 -104 -60 -24 -46 -19 -87 14 -121 37
-37 79 -38 138 -4 l43 26 0 84 c0 96 6 91 -91 75z"/>
<path d="M13994 8546 c-44 -19 -81 -63 -99 -115 -8 -24 -15 -48 -15 -52 0 -10
232 0 242 10 13 11 -11 124 -29 142 -26 25 -63 31 -99 15z"/>
</g>
</svg>
